<svg id="Lager_1" data-name="Lager 1" xmlns="http://www.w3.org/2000/svg" viewBox="0 0 388.5 124.19"><defs><style>.cls-1{fill:#ff00ff;}.cls-2{fill:#00ffff;}</style></defs><path class="cls-1" d="M83.51,430.35V380.91H133V388H104.7V402.1h21.19v7.06H104.7v21.19Z" transform="translate(-83.51 -380.91)"/><path class="cls-1" d="M140,430.35V388h7.06v-7.06H182.4V388h7.06v42.38H175.34V409.16H161.21v21.19Zm21.19-41.29v13h14.13v-13Z" transform="translate(-83.51 -380.91)"/><path class="cls-1" d="M196.53,416.22h14.13v7.07h21.19V409.16H203.59V402.1h-7.06V388h7.06v-7.06h35.32V388H246V395H231.85V388H217.72V402.1h21.19v7.06H246v14.13h-7.06v7.06H203.59v-7.06h-7.06Z" transform="translate(-83.51 -380.91)"/><path class="cls-1" d="M302.48,380.91V388H288.36v42.38h-21.2V388H253v-7.06Z" transform="translate(-83.51 -380.91)"/><path class="cls-2" d="M83.51,505.09V455.65H133v7.06H104.7v14.13h21.19v7.06H104.7v21.19Z" transform="translate(-83.51 -380.91)"/><path class="cls-2" d="M140,505.09V462.71h7.06v-7.06H182.4v7.06h7.06v42.38H175.34V483.9H161.21v21.19Zm21.19-41.28v13h14.13v-13Z" transform="translate(-83.51 -380.91)"/><path class="cls-2" d="M196.53,491h14.13V498h21.19V483.9H203.59v-7.06h-7.06V462.71h7.06v-7.06h35.32v7.06H246v7.07H231.85v-7.07H217.72v14.13h21.19v7.06H246V498h-7.06v7.06H203.59V498h-7.06Z" transform="translate(-83.51 -380.91)"/><path class="cls-2" d="M302.48,455.65v49.44H288.36V483.9H274.23v21.19H253V455.65h21.19v21.19h14.13V455.65Z" transform="translate(-83.51 -380.91)"/><path class="cls-2" d="M351.93,455.65v7.06h-7.07V498h7.07v7.06H316.61V498h7.06V462.71h-7.06v-7.06Z" transform="translate(-83.51 -380.91)"/><path class="cls-2" d="M408.44,505.09H373.12V498h-7.06V462.71h7.06v-7.06h35.32v7.06h7.06V498h-7.06ZM401.37,498V462.71H387.25V498Z" transform="translate(-83.51 -380.91)"/><path class="cls-2" d="M422.56,505.09V455.65H465v7.06H472v42.38H457.88V462.71H443.76l0,42.38Z" transform="translate(-83.51 -380.91)"/></svg>
