<svg width="9" height="9" viewBox="0 0 9 9" fill="none" xmlns="http://www.w3.org/2000/svg">
<path d="M4.95411 3.79617C4.64695 3.48913 4.23042 3.31665 3.79611 3.31665C3.36181 3.31665 2.94528 3.48913 2.63811 3.79617L1.47974 4.95417C1.17257 5.26134 1 5.67795 1 6.11236C1 6.54676 1.17257 6.96337 1.47974 7.27054C1.78691 7.57771 2.20352 7.75028 2.63792 7.75028C3.07233 7.75028 3.48894 7.57771 3.79611 7.27054L4.37511 6.69154" stroke="#A1A1A2" stroke-linecap="round" stroke-linejoin="round"/>
<path d="M3.7959 4.95411C4.10306 5.26115 4.51959 5.43363 4.9539 5.43363C5.3882 5.43363 5.80473 5.26115 6.1119 4.95411L7.27027 3.79611C7.57744 3.48894 7.75001 3.07233 7.75001 2.63792C7.75001 2.20352 7.57744 1.78691 7.27027 1.47974C6.9631 1.17257 6.54649 1 6.11209 1C5.67768 1 5.26107 1.17257 4.9539 1.47974L4.3749 2.05874" stroke="#A1A1A2" stroke-linecap="round" stroke-linejoin="round"/>
</svg>