<svg width="17" height="18" viewBox="0 0 17 18" fill="none" xmlns="http://www.w3.org/2000/svg">
<path d="M13.9998 0.00195312C14.4945 0.00204394 14.9815 0.124531 15.4173 0.358495C15.8531 0.592459 16.2243 0.930628 16.4977 1.34286C16.7711 1.75508 16.9383 2.22856 16.9843 2.72108C17.0303 3.21359 16.9537 3.70984 16.7614 4.16558C16.5691 4.62132 16.267 5.02239 15.882 5.33304C15.4971 5.64368 15.0413 5.85425 14.5552 5.94597C14.0691 6.03769 13.5679 6.0077 13.0962 5.85869C12.6245 5.70968 12.197 5.44627 11.8518 5.09195L6.39484 8.21195C6.53538 8.72823 6.53538 9.27268 6.39484 9.78895L11.8528 12.908C12.3622 12.3857 13.0446 12.0671 13.772 12.0118C14.4995 11.9565 15.2221 12.1684 15.8045 12.6078C16.3869 13.0471 16.7892 13.6837 16.9359 14.3984C17.0826 15.113 16.9636 15.8567 16.6014 16.4899C16.2391 17.1231 15.6583 17.6026 14.9679 17.8383C14.2775 18.0741 13.5249 18.05 12.8509 17.7706C12.177 17.4912 11.6281 16.9757 11.307 16.3206C10.986 15.6655 10.9148 14.9158 11.1068 14.212L5.64984 11.092C5.23375 11.5191 4.69975 11.8124 4.11609 11.9345C3.53243 12.0565 2.92563 12.0018 2.37325 11.7772C1.82087 11.5526 1.34801 11.1684 1.01511 10.6737C0.682208 10.179 0.504395 9.59624 0.504395 8.99995C0.504395 8.40367 0.682208 7.82092 1.01511 7.32621C1.34801 6.8315 1.82087 6.4473 2.37325 6.22272C2.92563 5.99814 3.53243 5.94338 4.11609 6.06544C4.69975 6.1875 5.23375 6.48084 5.64984 6.90795L11.1068 3.78795C10.9863 3.3433 10.9698 2.87686 11.0586 2.4248C11.1473 1.97273 11.339 1.54719 11.6188 1.18116C11.8986 0.815135 12.2589 0.518459 12.6718 0.314136C13.0847 0.109813 13.5391 0.00333308 13.9998 0.00295305V0.00195312Z" fill="white"/>
</svg>